<svg xmlns="http://www.w3.org/2000/svg" width="33.185" height="33.179" viewBox="0 0 33.185 33.179">
  <g id="start-up" transform="translate(0.125 0.103)">
    <path id="Path_33" data-name="Path 33" d="M32.816.994a.965.965,0,0,0-.853-.853C24.322-.708,17.809,2.349,12.5,7.818a39.836,39.836,0,0,0-3.965,4.821,7.667,7.667,0,0,0-5.515,2.282L.284,17.652a.966.966,0,0,0,.933,1.616,13.447,13.447,0,0,1,2.653-.414,7.457,7.457,0,0,1,.912.008c-.6,1.159-1.065,2.13-1.218,2.373a.966.966,0,0,0,.135,1.2l1.58,1.58c-2.3,3.137-2.338,4.743-2.33,4.971a.97.97,0,0,0,1.015.934c.539,0,2.085-.229,4.9-2.319l1.662,1.662a.966.966,0,0,0,1.2.129c.26-.167,1.174-.61,2.27-1.183a23.588,23.588,0,0,1-.333,3.643.966.966,0,0,0,1.638.824l2.731-2.731A7.627,7.627,0,0,0,20.2,24.48a39.872,39.872,0,0,0,5.073-4.17C30.692,15,33.654,8.533,32.816.994Zm-1.847.994a19.282,19.282,0,0,1-.489,6.053,8.5,8.5,0,0,1-3.4-2.161,8.494,8.494,0,0,1-2.165-3.416A19.468,19.468,0,0,1,30.969,1.987ZM3.744,16.924l.637-.637a6.1,6.1,0,0,1,2.77-1.575c-.521.827-.985,1.616-1.394,2.344A7.756,7.756,0,0,0,3.744,16.924Zm1.827,4.65c.209-.412.462-.929.926-1.806l1.271,1.271q-.709.761-1.285,1.446Zm4.722-.369a2.855,2.855,0,0,1,2.216-.85,2.888,2.888,0,0,1-.851,2.216A24.976,24.976,0,0,1,5.377,27.5,24.737,24.737,0,0,1,10.293,21.2Zm1.086,6.177-1-1q.682-.579,1.442-1.289l1.353,1.353C12.289,26.924,11.917,27.1,11.379,27.381Zm5.292,1.2-.773.773a9.423,9.423,0,0,0-.048-2.146c.71-.4,1.481-.853,2.289-1.36A5.7,5.7,0,0,1,16.671,28.577Zm-1.735-3.1L13.2,23.745c1.281-1.41,1.233-2.768,1.233-4.355a.965.965,0,0,0-.966-.966c-1.483,0-2.909-.079-4.355,1.234L7.464,18C11.979,10.088,17.2,5.077,23.06,3.013a10.4,10.4,0,0,0,2.652,4.233,10.4,10.4,0,0,0,4.214,2.645C27.849,15.722,22.839,20.937,14.936,25.476Zm0,0" transform="translate(0 0)" fill="#1d1d1d" stroke="#868686" stroke-width="0.2"/>
    <path id="Path_34" data-name="Path 34" d="M258.433,113.246a4.828,4.828,0,1,0,0,6.828A4.834,4.834,0,0,0,258.433,113.246Zm-1.366,5.462a2.9,2.9,0,1,1,0-4.1A2.9,2.9,0,0,1,257.068,118.708Zm0,0" transform="translate(-234.087 -104.635)" fill="#1d1d1d" stroke="#868686" stroke-width="0.2"/>
  </g>
</svg>
