<svg xmlns="http://www.w3.org/2000/svg" width="33.902" height="33.334" viewBox="0 0 33.902 33.334">
  <g id="calendar2" transform="translate(0.5)">
    <path id="Path_80" data-name="Path 80" d="M24.335,2.769A2.841,2.841,0,0,0,21.556.5a.567.567,0,1,0,0,1.135,1.7,1.7,0,1,1,0,3.4.567.567,0,1,0,0,1.135A2.842,2.842,0,0,0,24.335,3.9h7.432V9.009H1.135V3.9h9.644a.567.567,0,0,0,0-1.135H9.748a1.7,1.7,0,1,1,1.6,2.269.567.567,0,0,0,0,1.135,2.836,2.836,0,1,0-2.779-3.4H0V32.834H32.9V2.769ZM31.767,31.7H1.135V10.144H31.767Z" fill="#868686" stroke="#868686" stroke-width="1"/>
    <path id="Path_81" data-name="Path 81" d="M25.567,1.635a1.7,1.7,0,0,1,0,3.4.567.567,0,1,0,0,1.135,2.836,2.836,0,0,0,0-5.673.567.567,0,1,0,0,1.135Z" transform="translate(-10.818)" fill="#868686" stroke="#868686" stroke-width="1"/>
    <path id="Path_82" data-name="Path 82" d="M31.567,1.635a1.7,1.7,0,1,1,0,3.4.567.567,0,1,0,0,1.135,2.836,2.836,0,0,0,0-5.673.567.567,0,1,0,0,1.135Z" transform="translate(-13.415)" fill="#868686" stroke="#868686" stroke-width="1"/>
    <circle id="Ellipse_49" data-name="Ellipse 49" cx="0.567" cy="0.567" r="0.567" transform="translate(11.913 13.547)" fill="#868686" stroke="#868686" stroke-width="1"/>
    <circle id="Ellipse_50" data-name="Ellipse 50" cx="0.567" cy="0.567" r="0.567" transform="translate(15.884 13.547)" fill="#868686" stroke="#868686" stroke-width="1"/>
    <circle id="Ellipse_51" data-name="Ellipse 51" cx="0.567" cy="0.567" r="0.567" transform="translate(19.854 13.547)" fill="#868686" stroke="#868686" stroke-width="1"/>
    <circle id="Ellipse_52" data-name="Ellipse 52" cx="0.567" cy="0.567" r="0.567" transform="translate(23.825 13.547)" fill="#868686" stroke="#868686" stroke-width="1"/>
    <circle id="Ellipse_53" data-name="Ellipse 53" cx="0.567" cy="0.567" r="0.567" transform="translate(27.796 13.547)" fill="#868686" stroke="#868686" stroke-width="1"/>
    <circle id="Ellipse_54" data-name="Ellipse 54" cx="0.567" cy="0.567" r="0.567" transform="translate(3.971 18.085)" fill="#868686" stroke="#868686" stroke-width="1"/>
    <circle id="Ellipse_55" data-name="Ellipse 55" cx="0.567" cy="0.567" r="0.567" transform="translate(7.942 18.085)" fill="#868686" stroke="#868686" stroke-width="1"/>
    <circle id="Ellipse_56" data-name="Ellipse 56" cx="0.567" cy="0.567" r="0.567" transform="translate(11.913 18.085)" fill="#868686" stroke="#868686" stroke-width="1"/>
    <circle id="Ellipse_57" data-name="Ellipse 57" cx="0.567" cy="0.567" r="0.567" transform="translate(15.884 18.085)" fill="#868686" stroke="#868686" stroke-width="1"/>
    <circle id="Ellipse_58" data-name="Ellipse 58" cx="0.567" cy="0.567" r="0.567" transform="translate(19.854 18.085)" fill="#868686" stroke="#868686" stroke-width="1"/>
    <circle id="Ellipse_59" data-name="Ellipse 59" cx="0.567" cy="0.567" r="0.567" transform="translate(23.825 18.085)" fill="#868686" stroke="#868686" stroke-width="1"/>
    <circle id="Ellipse_60" data-name="Ellipse 60" cx="0.567" cy="0.567" r="0.567" transform="translate(27.796 18.085)" fill="#868686" stroke="#868686" stroke-width="1"/>
    <circle id="Ellipse_61" data-name="Ellipse 61" cx="0.567" cy="0.567" r="0.567" transform="translate(3.971 22.056)" fill="#868686" stroke="#868686" stroke-width="1"/>
    <circle id="Ellipse_62" data-name="Ellipse 62" cx="0.567" cy="0.567" r="0.567" transform="translate(7.942 22.056)" fill="#868686" stroke="#868686" stroke-width="1"/>
    <circle id="Ellipse_63" data-name="Ellipse 63" cx="0.567" cy="0.567" r="0.567" transform="translate(11.913 22.056)" fill="#868686" stroke="#868686" stroke-width="1"/>
    <circle id="Ellipse_64" data-name="Ellipse 64" cx="0.567" cy="0.567" r="0.567" transform="translate(15.884 22.056)" fill="#868686" stroke="#868686" stroke-width="1"/>
    <circle id="Ellipse_65" data-name="Ellipse 65" cx="0.567" cy="0.567" r="0.567" transform="translate(19.854 22.056)" fill="#868686" stroke="#868686" stroke-width="1"/>
    <circle id="Ellipse_66" data-name="Ellipse 66" cx="0.567" cy="0.567" r="0.567" transform="translate(23.825 22.056)" fill="#868686" stroke="#868686" stroke-width="1"/>
    <circle id="Ellipse_67" data-name="Ellipse 67" cx="0.567" cy="0.567" r="0.567" transform="translate(27.796 22.056)" fill="#868686" stroke="#868686" stroke-width="1"/>
    <circle id="Ellipse_68" data-name="Ellipse 68" cx="0.567" cy="0.567" r="0.567" transform="translate(3.971 26.594)" fill="#868686" stroke="#868686" stroke-width="1"/>
    <circle id="Ellipse_69" data-name="Ellipse 69" cx="0.567" cy="0.567" r="0.567" transform="translate(7.942 26.594)" fill="#868686" stroke="#868686" stroke-width="1"/>
    <circle id="Ellipse_70" data-name="Ellipse 70" cx="0.567" cy="0.567" r="0.567" transform="translate(11.913 26.594)" fill="#868686" stroke="#868686" stroke-width="1"/>
    <circle id="Ellipse_71" data-name="Ellipse 71" cx="0.567" cy="0.567" r="0.567" transform="translate(15.884 26.594)" fill="#868686" stroke="#868686" stroke-width="1"/>
    <circle id="Ellipse_72" data-name="Ellipse 72" cx="0.567" cy="0.567" r="0.567" transform="translate(19.854 26.594)" fill="#868686" stroke="#868686" stroke-width="1"/>
  </g>
</svg>
