<svg xmlns="http://www.w3.org/2000/svg" width="27.687" height="27.224" viewBox="0 0 27.687 27.224">
  <g id="calendar2" transform="translate(0.4 -0.1)">
    <path id="Path_80" data-name="Path 80" d="M19.887,2.354A2.322,2.322,0,0,0,17.616.5a.464.464,0,1,0,0,.927,1.391,1.391,0,1,1,0,2.781.464.464,0,1,0,0,.927,2.322,2.322,0,0,0,2.271-1.854H25.96V7.454H.927V3.281H8.808a.464.464,0,0,0,0-.927H7.966A1.388,1.388,0,1,1,9.272,4.209a.464.464,0,0,0,0,.927A2.318,2.318,0,1,0,7,2.354H0v24.57H26.887V2.354ZM25.96,26H.927V8.381H25.96Z" fill="#4d4d4d" stroke="#4d4d4d" stroke-width="0.8"/>
    <path id="Path_81" data-name="Path 81" d="M25.464,1.427a1.391,1.391,0,0,1,0,2.781.464.464,0,1,0,0,.927,2.318,2.318,0,0,0,0-4.636.464.464,0,1,0,0,.927Z" transform="translate(-13.411)" fill="#4d4d4d" stroke="#4d4d4d" stroke-width="0.8"/>
    <path id="Path_82" data-name="Path 82" d="M31.464,1.427a1.391,1.391,0,1,1,0,2.781.464.464,0,1,0,0,.927,2.318,2.318,0,0,0,0-4.636.464.464,0,1,0,0,.927Z" transform="translate(-16.629)" fill="#4d4d4d" stroke="#4d4d4d" stroke-width="0.8"/>
    <circle id="Ellipse_49" data-name="Ellipse 49" cx="0.464" cy="0.464" r="0.464" transform="translate(9.735 11.162)" fill="#4d4d4d" stroke="#4d4d4d" stroke-width="0.8"/>
    <circle id="Ellipse_50" data-name="Ellipse 50" cx="0.464" cy="0.464" r="0.464" transform="translate(12.98 11.162)" fill="#4d4d4d" stroke="#4d4d4d" stroke-width="0.8"/>
    <circle id="Ellipse_51" data-name="Ellipse 51" cx="0.464" cy="0.464" r="0.464" transform="translate(16.225 11.162)" fill="#4d4d4d" stroke="#4d4d4d" stroke-width="0.8"/>
    <circle id="Ellipse_52" data-name="Ellipse 52" cx="0.464" cy="0.464" r="0.464" transform="translate(19.47 11.162)" fill="#4d4d4d" stroke="#4d4d4d" stroke-width="0.8"/>
    <circle id="Ellipse_53" data-name="Ellipse 53" cx="0.464" cy="0.464" r="0.464" transform="translate(22.715 11.162)" fill="#4d4d4d" stroke="#4d4d4d" stroke-width="0.8"/>
    <circle id="Ellipse_54" data-name="Ellipse 54" cx="0.464" cy="0.464" r="0.464" transform="translate(3.245 14.871)" fill="#4d4d4d" stroke="#4d4d4d" stroke-width="0.8"/>
    <circle id="Ellipse_55" data-name="Ellipse 55" cx="0.464" cy="0.464" r="0.464" transform="translate(6.49 14.871)" fill="#4d4d4d" stroke="#4d4d4d" stroke-width="0.8"/>
    <circle id="Ellipse_56" data-name="Ellipse 56" cx="0.464" cy="0.464" r="0.464" transform="translate(9.735 14.871)" fill="#4d4d4d" stroke="#4d4d4d" stroke-width="0.8"/>
    <circle id="Ellipse_57" data-name="Ellipse 57" cx="0.464" cy="0.464" r="0.464" transform="translate(12.98 14.871)" fill="#4d4d4d" stroke="#4d4d4d" stroke-width="0.8"/>
    <circle id="Ellipse_58" data-name="Ellipse 58" cx="0.464" cy="0.464" r="0.464" transform="translate(16.225 14.871)" fill="#4d4d4d" stroke="#4d4d4d" stroke-width="0.8"/>
    <circle id="Ellipse_59" data-name="Ellipse 59" cx="0.464" cy="0.464" r="0.464" transform="translate(19.47 14.871)" fill="#4d4d4d" stroke="#4d4d4d" stroke-width="0.8"/>
    <circle id="Ellipse_60" data-name="Ellipse 60" cx="0.464" cy="0.464" r="0.464" transform="translate(22.715 14.871)" fill="#4d4d4d" stroke="#4d4d4d" stroke-width="0.8"/>
    <circle id="Ellipse_61" data-name="Ellipse 61" cx="0.464" cy="0.464" r="0.464" transform="translate(3.245 18.116)" fill="#4d4d4d" stroke="#4d4d4d" stroke-width="0.8"/>
    <circle id="Ellipse_62" data-name="Ellipse 62" cx="0.464" cy="0.464" r="0.464" transform="translate(6.49 18.116)" fill="#4d4d4d" stroke="#4d4d4d" stroke-width="0.8"/>
    <circle id="Ellipse_63" data-name="Ellipse 63" cx="0.464" cy="0.464" r="0.464" transform="translate(9.735 18.116)" fill="#4d4d4d" stroke="#4d4d4d" stroke-width="0.8"/>
    <circle id="Ellipse_64" data-name="Ellipse 64" cx="0.464" cy="0.464" r="0.464" transform="translate(12.98 18.116)" fill="#4d4d4d" stroke="#4d4d4d" stroke-width="0.8"/>
    <circle id="Ellipse_65" data-name="Ellipse 65" cx="0.464" cy="0.464" r="0.464" transform="translate(16.225 18.116)" fill="#4d4d4d" stroke="#4d4d4d" stroke-width="0.8"/>
    <circle id="Ellipse_66" data-name="Ellipse 66" cx="0.464" cy="0.464" r="0.464" transform="translate(19.47 18.116)" fill="#4d4d4d" stroke="#4d4d4d" stroke-width="0.8"/>
    <circle id="Ellipse_67" data-name="Ellipse 67" cx="0.464" cy="0.464" r="0.464" transform="translate(22.715 18.116)" fill="#4d4d4d" stroke="#4d4d4d" stroke-width="0.8"/>
    <circle id="Ellipse_68" data-name="Ellipse 68" cx="0.464" cy="0.464" r="0.464" transform="translate(3.245 21.824)" fill="#4d4d4d" stroke="#4d4d4d" stroke-width="0.8"/>
    <circle id="Ellipse_69" data-name="Ellipse 69" cx="0.464" cy="0.464" r="0.464" transform="translate(6.49 21.824)" fill="#4d4d4d" stroke="#4d4d4d" stroke-width="0.8"/>
    <circle id="Ellipse_70" data-name="Ellipse 70" cx="0.464" cy="0.464" r="0.464" transform="translate(9.735 21.824)" fill="#4d4d4d" stroke="#4d4d4d" stroke-width="0.8"/>
    <circle id="Ellipse_71" data-name="Ellipse 71" cx="0.464" cy="0.464" r="0.464" transform="translate(12.98 21.824)" fill="#4d4d4d" stroke="#4d4d4d" stroke-width="0.8"/>
    <circle id="Ellipse_72" data-name="Ellipse 72" cx="0.464" cy="0.464" r="0.464" transform="translate(16.225 21.824)" fill="#4d4d4d" stroke="#4d4d4d" stroke-width="0.8"/>
  </g>
</svg>
