<svg xmlns="http://www.w3.org/2000/svg" width="36.43" height="30.061" viewBox="0 0 36.43 30.061">
  <g id="campaign" transform="translate(0.25 -45.219)">
    <g id="Group_14" data-name="Group 14" transform="translate(0 45.484)">
      <g id="Group_13" data-name="Group 13" transform="translate(0 0)">
        <path id="Path_23" data-name="Path 23" d="M32.343,59.264a3.538,3.538,0,0,0-3.111-3.507V46.7a1.21,1.21,0,0,0-2.257-.608,14.5,14.5,0,0,1-8.96,6.69,19.041,19.041,0,0,1-5.588.74.7.7,0,0,0-.11,0H5.872a5.872,5.872,0,0,0-.558,11.718l1.944,7.994a2.348,2.348,0,0,0,2.287,1.8H10.9a2.354,2.354,0,0,0,2.287-2.91l-1.667-6.855h.8a.7.7,0,0,0,.111,0,19.043,19.043,0,0,1,5.589.74,14.5,14.5,0,0,1,8.96,6.689,1.2,1.2,0,0,0,1.038.6,1.243,1.243,0,0,0,.323-.043,1.2,1.2,0,0,0,.9-1.169v-9.06a3.538,3.538,0,0,0,3.111-3.507v-.258ZM11.6,71.54l.222.912a.951.951,0,0,1-.924,1.175H9.546a.948.948,0,0,1-.924-.726L6.766,65.265h3.306l.5,2.038h-.335a.7.7,0,0,0,0,1.4h.677l.348,1.429h-.22a.7.7,0,1,0,0,1.4Zm.089-10.656H7.325a.7.7,0,1,0,0,1.4h4.361v1.574H10.661l-.039,0H5.852a4.469,4.469,0,0,1,.02-8.937h5.814v5.96Zm16.142-4.451V71.4a16.179,16.179,0,0,0-9.476-6.759,21.15,21.15,0,0,0-5.263-.786V54.927a21.152,21.152,0,0,0,5.263-.786,16.18,16.18,0,0,0,9.476-6.759Zm3.111,3.089a2.133,2.133,0,0,1-1.707,2.088V57.176a2.133,2.133,0,0,1,1.707,2.088Z" transform="translate(0 -45.484)" fill="#868686" stroke="#868686" stroke-width="0.5"/>
        <path id="Path_24" data-name="Path 24" d="M454.588,142.316a.7.7,0,0,0,.472-.183l2.024-1.843a.7.7,0,1,0-.945-1.038l-2.024,1.843a.7.7,0,0,0,.473,1.221Z" transform="translate(-422.035 -132.502)" fill="#868686" stroke="#868686" stroke-width="0.5"/>
        <path id="Path_25" data-name="Path 25" d="M455.061,302.207a.7.7,0,0,0-.945,1.038l2.024,1.843a.7.7,0,1,0,.945-1.038Z" transform="translate(-422.035 -284.021)" fill="#868686" stroke="#868686" stroke-width="0.5"/>
        <path id="Path_26" data-name="Path 26" d="M472.109,233.68h-1.554a.7.7,0,1,0,0,1.4h1.554a.7.7,0,1,0,0-1.4Z" transform="translate(-436.881 -220.473)" fill="#868686" stroke="#868686" stroke-width="0.5"/>
        <path id="Path_27" data-name="Path 27" d="M54.53,265.362a.693.693,0,0,0-.065-.121.707.707,0,0,0-.315-.258.74.74,0,0,0-.131-.04.694.694,0,0,0-.274,0,.706.706,0,0,0-.131.04.718.718,0,0,0-.121.065.682.682,0,0,0-.194.194.694.694,0,0,0-.065.121.708.708,0,0,0-.04.131.691.691,0,0,0-.014.137.7.7,0,0,0,.014.138.742.742,0,0,0,.04.131.712.712,0,0,0,.065.121.671.671,0,0,0,.087.107.693.693,0,0,0,.228.152.711.711,0,0,0,.131.04.712.712,0,0,0,.274,0,.728.728,0,0,0,.131-.04.712.712,0,0,0,.121-.065.762.762,0,0,0,.107-.088.712.712,0,0,0,.152-.227.742.742,0,0,0,.04-.131.7.7,0,0,0,.013-.138.69.69,0,0,0-.013-.137A.708.708,0,0,0,54.53,265.362Z" transform="translate(-49.448 -249.53)" fill="#868686" stroke="#868686" stroke-width="0.5"/>
      </g>
    </g>
  </g>
</svg>
