<svg id="bullseye" xmlns="http://www.w3.org/2000/svg" width="26.889" height="26.89" viewBox="0 0 26.889 26.89">
  <g id="Group_35" data-name="Group 35" transform="translate(0 0)">
    <path id="Path_41" data-name="Path 41" d="M25.087,6.7A13.388,13.388,0,0,0,20.194,1.8,13.151,13.151,0,0,0,13.445,0,13.151,13.151,0,0,0,6.7,1.8,13.385,13.385,0,0,0,1.8,6.7,13.151,13.151,0,0,0,0,13.445a13.154,13.154,0,0,0,1.8,6.749A13.388,13.388,0,0,0,6.7,25.086a13.153,13.153,0,0,0,6.749,1.8,13.153,13.153,0,0,0,6.749-1.8,13.385,13.385,0,0,0,4.893-4.893,13.153,13.153,0,0,0,1.8-6.749A13.154,13.154,0,0,0,25.087,6.7Zm-1.331,11.1A11.045,11.045,0,0,1,17.8,23.756a11.042,11.042,0,0,1-8.7,0,11.045,11.045,0,0,1-5.961-5.961,11.044,11.044,0,0,1,0-8.7A11.047,11.047,0,0,1,9.095,3.134a11.047,11.047,0,0,1,8.7,0,11.047,11.047,0,0,1,5.961,5.961,11.042,11.042,0,0,1,0,8.7Z" transform="translate(0 0)" fill="#4d4d4d"/>
    <path id="Path_42" data-name="Path 42" d="M82.055,73.085a8.966,8.966,0,1,0,6.337,2.626A8.636,8.636,0,0,0,82.055,73.085ZM86.808,86.8a6.72,6.72,0,1,1,1.969-4.753A6.476,6.476,0,0,1,86.808,86.8Z" transform="translate(-68.61 -68.604)" fill="#4d4d4d"/>
    <path id="Path_43" data-name="Path 43" d="M149.687,146.178a3.507,3.507,0,1,0,2.479,1.027A3.379,3.379,0,0,0,149.687,146.178Z" transform="translate(-136.242 -136.239)" fill="#4d4d4d"/>
  </g>
</svg>
