<svg id="bullseye" xmlns="http://www.w3.org/2000/svg" width="33.868" height="33.869" viewBox="0 0 33.868 33.869">
  <g id="Group_35" data-name="Group 35" transform="translate(0 0)">
    <path id="Path_41" data-name="Path 41" d="M31.6,8.434a16.863,16.863,0,0,0-6.163-6.163A16.565,16.565,0,0,0,16.935,0a16.564,16.564,0,0,0-8.5,2.271A16.859,16.859,0,0,0,2.271,8.434,16.564,16.564,0,0,0,0,16.934a16.568,16.568,0,0,0,2.271,8.5A16.863,16.863,0,0,0,8.434,31.6a16.566,16.566,0,0,0,8.5,2.271,16.566,16.566,0,0,0,8.5-2.271A16.859,16.859,0,0,0,31.6,25.435a16.567,16.567,0,0,0,2.271-8.5A16.568,16.568,0,0,0,31.6,8.434Zm-1.676,13.98a13.912,13.912,0,0,1-7.508,7.508,13.908,13.908,0,0,1-10.959,0,13.912,13.912,0,0,1-7.508-7.508,13.91,13.91,0,0,1,0-10.959,13.914,13.914,0,0,1,7.508-7.508,13.914,13.914,0,0,1,10.959,0,13.914,13.914,0,0,1,7.508,7.508,13.908,13.908,0,0,1,0,10.959Z" transform="translate(0 0)" fill="#868686"/>
    <path id="Path_42" data-name="Path 42" d="M84.382,73.085a11.293,11.293,0,1,0,7.982,3.308A10.877,10.877,0,0,0,84.382,73.085Zm5.987,17.276a8.464,8.464,0,1,1,2.481-5.987A8.157,8.157,0,0,1,90.368,90.361Z" transform="translate(-67.447 -67.441)" fill="#868686"/>
    <path id="Path_43" data-name="Path 43" d="M150.6,146.178a4.417,4.417,0,1,0,3.122,1.294A4.256,4.256,0,0,0,150.6,146.178Z" transform="translate(-133.662 -133.66)" fill="#868686"/>
  </g>
</svg>
